<?xml version="1.0"?>
<svg width="100" height="125" xmlns="http://www.w3.org/2000/svg">
 <g>
  <title>Layer 1</title>
  <g display="none">
   <g display="inline">
    <path d="m46.120998,84.231003c-0.880997,0.990997 -1.382999,2.241997 -1.382999,3.579994c0,2.985001 2.427002,5.414001 5.414001,5.414001s5.414001,-2.429001 5.414001,-5.414001c0,-1.334999 -0.652,-2.610001 -1.529003,-3.596001l-0.036999,-12.214996h6.271l3.729,-3.250999v-1.278l-3.729,-3.471001h-3.957001l-0.015999,-49.365l-6.157001,-10.571l-6.154999,10.604l0.007999,49.332h-3.964001l-4.029999,3.471001v1.278l4.029999,3.250999h5.970001l0.120998,12.231003zm8.113003,-20.231003h-3.234001v-54.099l3.124001,5.299l0.110001,48.8zm-8.223,-48.799l2.988998,-5.326v54.125h-2.925999l-0.063,-48.799zm5.988998,61.164997c0,0.160004 -0.907001,0.376999 -1.965,0.376999c-1.18,0 -2.035,-0.267998 -2.035,-0.427994v-1.300003c1,0.171997 1.264999,0.270004 2.035,0.270004c0.782001,0 1.965,-0.092003 1.965,-0.249001v1.329994l0,0zm0,3.569c0,0.160004 -0.907001,0.375 -1.965,0.375c-1.18,0 -2.035,-0.265999 -2.035,-0.425995v-1.330002c1,0.171997 1.264999,0.269997 2.035,0.269997c0.782001,0 1.965,-0.092995 1.965,-0.249001v1.360001l0,0zm-3.93,-3.590996c0.018002,0.035995 0.035,0.083 0.035,0.146996h-0.035v-0.146996l0,0zm0,3.567001c0.018002,0.035995 0.035,0.083 0.035,0.145996h-0.035v-0.145996l0,0zm-0.07,2.209999c1,0.171997 1.264999,0.268997 2.035,0.268997c0.782001,0 1.965,-0.092003 1.965,-0.249001v1.320999c0,0.160004 -0.896,0.396004 -2,0.396004c-1.104,0 -2,-0.236 -2,-0.396004v-1.340996l0,0zm0.07,-9.168999v-0.146004c0.018002,0.036003 0.035,0.083 0.035,0.146004h-0.035l0,0zm2.080002,18.194c-1.839001,0 -3.334,-1.496002 -3.334,-3.334007c0,-0.838997 0.315998,-1.621994 0.876999,-2.237c0.659,0.236 1.487999,0.364006 2.457001,0.364006c0.965,0 1.792,-0.127007 2.449997,-0.361c0.558002,0.611 0.885002,1.396996 0.885002,2.233994c-0.000999,1.837006 -1.497002,3.334007 -3.334999,3.334007zm1.849998,-18.317001c0,0.159996 -0.907001,0.375 -1.965,0.375c-1.18,0 -2.035,-0.265999 -2.035,-0.426003v-0.778h4v0.829002l0,0zm7.41,-2.829002h-18.519001l-2.287998,-2l2.287998,-2h18.519001l2.286999,2l-2.286999,2z"/>
    <path d="m50.150002,86.584999c-1.004002,0 -1.82,0.816002 -1.82,1.819c0,1.003998 0.815998,1.819 1.82,1.819c1.003998,0 1.820999,-0.815002 1.820999,-1.819c0,-1.002998 -0.817001,-1.819 -1.820999,-1.819zm0,2.183998c-0.201,0 -0.363003,-0.163994 -0.363003,-0.363998s0.162003,-0.363998 0.363003,-0.363998c0.202,0 0.363998,0.164001 0.363998,0.363998s-0.161999,0.363998 -0.363998,0.363998z"/>
   </g>
  </g>
  <g display="none">
   <g display="inline">
    <path d="m50.054001,30.861c-10.139,0 -18.389,8.249001 -18.389,18.389c0,10.139 8.25,18.389 18.389,18.389c10.139999,0 18.389999,-8.25 18.389999,-18.389c-0.000999,-10.139999 -8.250999,-18.389 -18.389999,-18.389zm0,33.765999c-8.478001,0 -15.375999,-6.897999 -15.375999,-15.376999s6.897999,-15.375999 15.375999,-15.375999c8.479,0 15.375999,6.896999 15.375999,15.375999s-6.897999,15.376999 -15.375999,15.376999z"/>
    <path d="m39.097,73.080002c-2.382999,0 -4.320999,1.937996 -4.320999,4.32s1.938,4.32 4.320999,4.32c2.382,0 4.32,-1.938004 4.32,-4.32s-1.938,-4.32 -4.32,-4.32zm0,5.626999c-0.722,0 -1.307999,-0.585999 -1.307999,-1.306999c0,-0.723 0.585999,-1.308998 1.307999,-1.308998c0.721001,0 1.307999,0.585999 1.307999,1.308998c-0.000999,0.721001 -0.587997,1.306999 -1.307999,1.306999z"/>
    <path d="m50.075001,24.094999c-13.871002,0 -25.156,11.285002 -25.156,25.156c0,13.871002 11.284998,25.155998 25.156,25.155998s25.156002,-11.285999 25.156002,-25.156998c0,-13.870998 -11.285004,-25.155001 -25.156002,-25.155001zm0,47.299997c-12.209999,0 -22.144001,-9.933998 -22.144001,-22.143997c0,-12.209 9.934002,-22.143 22.144001,-22.143s22.144001,9.934 22.144001,22.143c0,12.209999 -9.934002,22.143997 -22.144001,22.143997z"/>
    <path d="m69.903,30.820999c2.383003,0 4.320999,-1.938 4.320999,-4.320999s-1.937996,-4.320999 -4.320999,-4.320999c-2.381996,0 -4.32,1.938 -4.32,4.320999s1.938004,4.320999 4.32,4.320999zm0,-5.629c0.722,0 1.308998,0.587 1.308998,1.308001s-0.586998,1.308001 -1.308998,1.308001c-0.721001,0 -1.307999,-0.587 -1.307999,-1.308001s0.587997,-1.308001 1.307999,-1.308001z"/>
    <path d="m20.386,48.064999c2.382,0 4.32,-1.938 4.32,-4.320999c0,-2.382 -1.938,-4.32 -4.32,-4.32c-2.382999,0 -4.320999,1.938 -4.320999,4.32c-0.001001,2.382999 1.938,4.320999 4.320999,4.320999zm0,-5.627998c0.721001,0 1.308001,0.585999 1.308001,1.307999s-0.587,1.308002 -1.308001,1.308002c-0.722,0 -1.309,-0.587002 -1.309,-1.308002s0.587,-1.307999 1.309,-1.307999z"/>
    <path d="m79.870003,49.278999c-2.383003,0 -4.320999,1.938 -4.320999,4.320999c0,2.381001 1.937996,4.32 4.320999,4.32c2.381996,0 4.32,-1.938999 4.32,-4.32c0,-2.382999 -1.938004,-4.320999 -4.32,-4.320999zm0,5.626999c-0.722,0 -1.308006,-0.585999 -1.308006,-1.306999c0,-0.723 0.586006,-1.308998 1.308006,-1.308998s1.307999,0.585999 1.307999,1.308998c0,0.721001 -0.585999,1.306999 -1.307999,1.306999z"/>
    <path d="m77.100998,22.202999c-7.223999,-7.223999 -16.829998,-11.202999 -27.046997,-11.202999c-10.216999,0 -19.823,3.979 -27.047001,11.202999c-7.224,7.225 -11.203,16.830002 -11.203,27.046001c0,10.216999 3.979,19.822998 11.203,27.046997c7.224001,7.225006 16.830002,11.204002 27.047001,11.204002s19.822998,-3.978996 27.045998,-11.203003c7.224998,-7.224998 11.203003,-16.829998 11.203003,-27.046997c0.000999,-10.216999 -3.978004,-19.822001 -11.202003,-27.047001zm-2.129997,51.963001c-6.654999,6.655998 -15.504002,10.321999 -24.917,10.321999s-18.261002,-3.666 -24.917002,-10.321999c-6.654999,-6.653999 -10.320999,-15.504002 -10.320999,-24.917c0,-9.411999 3.666,-18.261 10.320999,-24.916c6.656,-6.655001 15.504999,-10.321 24.917002,-10.321c9.412998,0 18.261002,3.665999 24.917,10.321s10.32,15.504002 10.32,24.916c0,9.412998 -3.665001,18.263 -10.32,24.917z"/>
    <path d="m75.549004,43.904999c0,2.382 1.937996,4.321003 4.320999,4.321003c2.381996,0 4.32,-1.938004 4.32,-4.321003s-1.938004,-4.320999 -4.32,-4.320999c-2.383003,0 -4.320999,1.938999 -4.320999,4.320999zm5.628998,0c0,0.721001 -0.585999,1.308002 -1.307999,1.308002s-1.308006,-0.587002 -1.308006,-1.308002s0.586006,-1.307999 1.308006,-1.307999s1.307999,0.586998 1.307999,1.307999z"/>
    <path d="m72.271004,34.879002c0,2.382 1.937996,4.320999 4.320999,4.320999c2.381996,0 4.32,-1.938 4.32,-4.320999s-1.938004,-4.321001 -4.32,-4.321001c-2.382004,0 -4.320999,1.939001 -4.320999,4.321001zm4.321999,-1.308002c0.721001,0 1.307999,0.587002 1.307999,1.308002s-0.586998,1.307999 -1.307999,1.307999c-0.722,0 -1.309006,-0.587002 -1.309006,-1.307999s0.587006,-1.308002 1.309006,-1.308002z"/>
    <path d="m27.854,63.723c0,-2.382999 -1.938,-4.32 -4.320999,-4.32s-4.321001,1.938 -4.321001,4.32s1.938,4.32 4.321001,4.32s4.320999,-1.937996 4.320999,-4.32zm-4.32,1.306c-0.721001,0 -1.308001,-0.585999 -1.308001,-1.306999c0,-0.723 0.587,-1.309002 1.308001,-1.309002s1.307999,0.586002 1.307999,1.309002c0,0.721001 -0.587,1.306999 -1.307999,1.306999z"/>
    <path d="m76.593002,59.402c-2.383003,0 -4.320999,1.938 -4.320999,4.32s1.937996,4.32 4.320999,4.32c2.381996,0 4.32,-1.938004 4.32,-4.32s-1.938004,-4.32 -4.32,-4.32zm0,5.626999c-0.722,0 -1.309006,-0.585999 -1.309006,-1.306999c0,-0.723 0.587006,-1.309002 1.309006,-1.309002c0.721001,0 1.307999,0.586002 1.307999,1.309002c-0.000999,0.721001 -0.587997,1.306999 -1.307999,1.306999z"/>
    <path d="m30.223,30.820999c2.382,0 4.320999,-1.938 4.320999,-4.320999s-1.938,-4.320999 -4.320999,-4.320999s-4.320999,1.938 -4.320999,4.320999s1.938,4.320999 4.320999,4.320999zm0,-5.629c0.721001,0 1.308001,0.587 1.308001,1.308001s-0.587,1.308001 -1.308001,1.308001s-1.307999,-0.587 -1.307999,-1.308001s0.585999,-1.308001 1.307999,-1.308001z"/>
    <path d="m61.028999,73.080002c-2.382,0 -4.32,1.937996 -4.32,4.32s1.938,4.32 4.32,4.32c2.382999,0 4.320999,-1.938004 4.320999,-4.32s-1.938,-4.32 -4.320999,-4.32zm0,5.626999c-0.721001,0 -1.307999,-0.585999 -1.307999,-1.306999c0,-0.723 0.586998,-1.308998 1.307999,-1.308998c0.722,0 1.309002,0.585999 1.309002,1.308998c0,0.721001 -0.587002,1.306999 -1.309002,1.306999z"/>
    <path d="m23.534,39.200001c2.382,0 4.320999,-1.938 4.320999,-4.320999s-1.938,-4.321001 -4.320999,-4.321001s-4.321001,1.937998 -4.321001,4.321001s1.938,4.320999 4.321001,4.320999zm0,-5.629002c0.720999,0 1.307999,0.587002 1.307999,1.308002s-0.587,1.307999 -1.307999,1.307999s-1.308001,-0.587002 -1.308001,-1.307999s0.586,-1.308002 1.308001,-1.308002z"/>
    <path d="m61.028999,25.521999c2.382999,0 4.320999,-1.938 4.320999,-4.320999s-1.938,-4.321001 -4.320999,-4.321001c-2.382,0 -4.32,1.938002 -4.32,4.321001s1.938,4.320999 4.32,4.320999zm0,-5.629c0.722,0 1.309002,0.587 1.309002,1.308001s-0.587002,1.308001 -1.309002,1.308001c-0.721001,0 -1.307999,-0.587 -1.307999,-1.308001s0.587997,-1.308001 1.307999,-1.308001z"/>
    <path d="m50.027,75.162003c-2.382999,0 -4.320999,1.937996 -4.320999,4.32s1.938,4.32 4.320999,4.32c2.382,0 4.32,-1.938004 4.32,-4.32s-1.938,-4.32 -4.32,-4.32zm0,5.628998c-0.722,0 -1.307999,-0.587997 -1.307999,-1.308998s0.585999,-1.309006 1.307999,-1.309006c0.721001,0 1.307999,0.588005 1.307999,1.309006s-0.586998,1.308998 -1.307999,1.308998z"/>
    <path d="m30.223,67.778999c-2.382,0 -4.320999,1.939003 -4.320999,4.32c0,2.383003 1.938,4.321999 4.320999,4.321999s4.320999,-1.938995 4.320999,-4.321999c-0.000999,-2.379997 -1.938999,-4.32 -4.320999,-4.32zm0,5.628998c-0.720999,0 -1.307999,-0.585999 -1.307999,-1.308998c0,-0.721001 0.587,-1.306999 1.307999,-1.306999s1.308001,0.585999 1.308001,1.306999c0,0.723 -0.587,1.308998 -1.308001,1.308998z"/>
    <path d="m50.027,23.438999c2.382,0 4.32,-1.938 4.32,-4.320999c0,-2.382 -1.938,-4.32 -4.32,-4.32c-2.382999,0 -4.320999,1.938 -4.320999,4.32c0.000999,2.382999 1.938999,4.320999 4.320999,4.320999zm0,-5.627998c0.721001,0 1.307999,0.585999 1.307999,1.307999s-0.586998,1.308001 -1.307999,1.308001c-0.722,0 -1.307999,-0.587 -1.307999,-1.308001s0.586998,-1.307999 1.307999,-1.307999z"/>
    <path d="m24.577,53.599998c0,-2.382999 -1.938,-4.320999 -4.320999,-4.320999s-4.321,1.938 -4.321,4.320999c0,2.381001 1.937999,4.32 4.321,4.32s4.320999,-1.939999 4.320999,-4.32zm-5.629,0c0,-0.723 0.587,-1.308998 1.308001,-1.308998s1.307999,0.585999 1.307999,1.308998c0,0.721001 -0.587,1.307003 -1.307999,1.307003s-1.308001,-0.587002 -1.308001,-1.307003z"/>
    <path d="m39.097,25.521999c2.382,0 4.32,-1.938 4.32,-4.320999s-1.938,-4.321001 -4.32,-4.321001c-2.382999,0 -4.320999,1.938002 -4.320999,4.321001s1.938,4.320999 4.320999,4.320999zm0,-5.629c0.721001,0 1.307999,0.587 1.307999,1.308001s-0.586998,1.308001 -1.307999,1.308001c-0.722,0 -1.307999,-0.587 -1.307999,-1.308001s0.585999,-1.308001 1.307999,-1.308001z"/>
    <path d="m69.903,67.778999c-2.381996,0 -4.32,1.939003 -4.32,4.32c0,2.383003 1.938004,4.321999 4.32,4.321999c2.383003,0 4.320999,-1.938995 4.320999,-4.321999c0.000999,-2.379997 -1.937996,-4.32 -4.320999,-4.32zm0,5.628998c-0.721001,0 -1.307999,-0.585999 -1.307999,-1.308998c0,-0.721001 0.586998,-1.306999 1.307999,-1.306999c0.722,0 1.308998,0.585999 1.308998,1.306999c0,0.723 -0.586998,1.308998 -1.308998,1.308998z"/>
   </g>
  </g>
  <g display="none">
   <path d="m89,56.521v-6.889999c0,-11.286999 -3.212997,-20.745001 -9.410004,-27.333c-6.332993,-6.731 -15.487999,-10.298 -26.598995,-10.298h-5.176003c-11.109997,0 -20.168999,3.567 -26.500999,10.299c-6.198999,6.587999 -9.313999,16.046001 -9.313999,27.333v7.328999c-2,2.813 -3.474,6.902 -3.474,11.389999c0,9.792 5.537,16.649002 14.019,16.649002h1.263c1.098999,0 2.201,0.938004 3.639,0.938004c3.740999,0 6.553999,-3.322006 6.553999,-7.062004v-22.52c0,-3.740997 -2.812,-6.634998 -6.553999,-6.634998c-1.939001,0 -3.460001,0.279999 -4.697001,2.279999h-0.204c-0.650999,-0.000999 -1.546,-0.257 -1.546,-0.181v-4.875999c0,-7.771 2.798,-14.370998 8.424,-19.085001c5.365002,-4.494999 12.790001,-6.969999 21.067001,-6.969999c8.277,0 15.666996,2.475 21.032001,6.969999c5.626999,4.714003 8.476997,11.314001 8.476997,19.085001v4.833c0,-0.049999 -0.865997,0.223 -1.396004,0.223h-0.202995c-1.237999,-2 -2.833,-2.279999 -4.773003,-2.279999c-3.740997,0 -6.627998,2.893997 -6.627998,6.634998v22.52c0,3.739998 2.887001,7.061996 6.627998,7.061996c1.438004,0 2.616005,-0.937996 3.715004,-0.937996h1.262001c8.480995,0 14.116997,-6.857002 14.116997,-16.649002c0,-4.724998 -1.722,-8.979 -3.722,-11.828999zm-65,-0.166c0,-1.796001 1.704,-3.257 3.5,-3.257s3.5,1.462002 3.5,3.257v22.52c0,1.794998 -1.704,3.255997 -3.5,3.255997s-3.5,-1.460999 -3.5,-3.255997v-22.52l0,0zm-2.761999,24.484997c-6.827001,-0.752998 -9.319001,-7.198997 -9.319001,-12.767998c0,-5.511997 2.455,-11.879997 9.119,-12.743999c-0.051001,0.336002 -0.038,0.679001 -0.038,1.027v22.52c0,0.683998 0.049,1.343002 0.238001,1.964996zm52.742002,-55.684996c-5.998001,-5.026001 -14.395004,-7.793001 -23.499004,-7.793001s-17.521,2.768 -23.519999,7.793001c-6.452,5.406 -9.961,12.941 -9.961,21.789v5.785999c-1,0.272999 -1,0.601002 -2,0.978001v-4.076c0,-21.341999 12.396,-33.632 32.814999,-33.632h5.176003c20.419003,0 33.008999,12.290001 33.008999,33.632v3.865002c-1,-0.352001 -2,-0.654003 -2,-0.905003v-5.646999c0,-8.848999 -3.566002,-16.383999 -10.019997,-21.789999zm3.019997,53.719999c0,1.794998 -1.705002,3.255997 -3.5,3.255997c-1.796997,0 -3.5,-1.460999 -3.5,-3.255997v-22.52c0,-1.796001 1.703003,-3.257 3.5,-3.257c1.794998,0 3.5,1.460999 3.5,3.257v22.52l0,0zm2.837997,1.964996c0.187004,-0.621994 0.162003,-1.280998 0.162003,-1.964996v-22.52c0,-0.348999 0.301003,-0.690998 0.25,-1.027c2.280998,0.296001 3.75,1.234001 5.75,2.563999v0.108002h-0.232002c2.489006,3 3.426003,6.494003 3.426003,10.041c-0.000999,5.568001 -2.529999,12.045998 -9.356003,12.798996z"/>
  </g>
  <g>
   <path d="m79.283997,11.575l-26.693996,0.3c-1.851002,0.021 -3.636002,0.565 -5.168999,1.534l-12.344002,3.357c-0.046001,0.012999 -0.091999,0.026999 -0.137001,0.042999l-4.214998,1.464001l-0.002001,-0.004002l-0.021999,0.012001l-0.485001,0.167999c-1.197001,0.416 -2.288,1.053001 -3.227999,1.867001l-3.631001,1.99l-2.49,1.387001l-0.040001,-0.054001l-0.396,0.297001l-1.216999,0.677c-1.076,0.599998 -2.02,1.390999 -2.794001,2.324999l-6.303,4.717001c-0.018,0.012999 -0.033999,0.025999 -0.051,0.039999c-2.062,1.647999 -3.357,4 -3.649,6.621002c-0.288,2.593998 0.439,5.146 2.051001,7.193996l25.595999,37.792004c0.028999,0.042999 0.062,0.085999 0.095001,0.127998c2.007,2.511002 4.998001,3.779999 7.986,3.702003c2.063999,-0.055 4.126999,-0.752007 5.863998,-2.131004l7.094002,-5.228996l8.012001,-1.512001l4.088001,-0.767006l-0.021004,0.320007l12.929001,0.357994c0.052002,-0.001999 0.101997,-0.002998 0.153999,-0.003998c5.361,-0.140999 9.660004,-5.125 9.599998,-10.490997l-0.584999,-46.082003c-0.060997,-5.447001 -4.548996,-10.079 -9.996002,-10.019zm-50.937996,13.395c0.272999,-0.498999 0.616999,-0.948999 1.014999,-1.341l2.987999,-1.638l1.491001,-0.518c-0.788002,1.802 -1.033001,3.817001 -0.666,5.776001l7.825001,45.080002l-13.030001,-42.562002c-0.007,-0.024 -0.014999,-0.047001 -0.023001,-0.072001c-0.540998,-1.556 -0.394999,-3.278 0.400002,-4.725zm14.475998,-3.104l0.508003,40.243002l-6.174004,-35.565001c-0.001999,-0.01 -0.003998,-0.02 -0.005997,-0.030001c-0.302002,-1.603001 0.085999,-3.271999 1.064999,-4.58c0.875,-1.169001 2.148998,-1.962999 3.585999,-2.233999l1.286003,-0.242001c-0.185001,0.780001 -0.275002,1.586 -0.265003,2.407999zm-19.187998,4.917002c-0.144001,1.404999 0.011,2.839998 0.479,4.202l13.081999,42.733002l-18.216999,-37.533001c-0.017,-0.034 -0.035,-0.068001 -0.053001,-0.101002c-0.814999,-1.464001 -0.960999,-3.211998 -0.396999,-4.795c0.184,-0.517 0.438,-1 0.752001,-1.438l3.355999,-2.511999l0.998001,-0.556zm-11.955001,16.267998c-0.974,-1.216999 -1.414,-2.738998 -1.241,-4.286999c0.17,-1.537998 0.928,-2.917999 2.131001,-3.890999l1.59,-1.189003c0.065,1.497002 0.469,2.975002 1.204,4.314003l17.950999,36.985001l-21.539999,-31.803001c-0.031,-0.043999 -0.062,-0.087002 -0.095,-0.129002zm74.127999,24.173c0.035004,3.167999 -2.510002,5.813004 -5.674995,5.896004l-26.788002,0.304001c-3.217003,0.034996 -5.863003,-2.553001 -5.899002,-5.771004l-0.577999,-45.834c-0.014999,-1.289 0.384998,-2.516001 1.153999,-3.547001c0.103001,-0.140999 0.209,-0.271 0.312,-0.386999c1.084999,-1.223 2.579998,-1.92 4.209999,-1.963l26.787003,-0.302c3.216995,-0.036 5.863998,2.552001 5.898994,5.771001l0.578003,45.832998z"/>
  </g>
 </g>
</svg>